<svg width="17" height="17" viewBox="0 0 17 17" fill="none" xmlns="http://www.w3.org/2000/svg">
<g clip-path="url(#clip0_791_33671)">
<path d="M12.2875 16.7228C14.487 16.7228 16.2779 14.8631 16.2779 12.5792C16.2779 10.2986 14.4932 8.4422 12.3001 8.43567C11.6591 7.97237 10.8484 7.61674 9.92149 7.38183C10.5845 6.65752 10.9929 5.67547 10.9929 4.59879C10.9929 2.36714 9.24594 0.553101 7.09675 0.553101C4.94756 0.553101 3.20055 2.36714 3.20055 4.59879C3.20055 5.67547 3.60903 6.65426 4.27201 7.38183C3.25083 7.63632 2.37418 8.04415 1.70492 8.57596C0.712017 9.36553 0.19043 10.4161 0.19043 11.6233V14.6412C0.19043 15.7897 1.21475 16.7228 2.47473 16.7228M15.461 12.5792C15.461 14.3965 14.0376 15.8745 12.2875 15.8745C10.5373 15.8745 9.11397 14.3965 9.11397 12.5792C9.11397 10.7619 10.5373 9.28396 12.2875 9.28396C14.0376 9.28396 15.461 10.7619 15.461 12.5792ZM7.09361 1.40139C8.79348 1.40139 10.1729 2.83696 10.1729 4.59879C10.1729 6.36062 8.79034 7.79619 7.09361 7.79619C5.39688 7.79619 4.01436 6.36062 4.01436 4.59879C4.01436 2.83696 5.39688 1.40139 7.09361 1.40139ZM1.00737 11.6233C1.00737 10.6771 1.40956 9.88103 2.19823 9.25133C2.90834 8.68689 3.90753 8.27906 5.09524 8.07352C5.67967 8.43893 6.36464 8.64774 7.09361 8.64774C7.82257 8.64774 8.50755 8.43893 9.09198 8.07352C9.80523 8.1975 10.4525 8.39326 11.0087 8.65427C9.43447 9.20892 8.30017 10.7587 8.30017 12.5792C8.30017 13.9202 8.91916 15.1143 9.87436 15.8745H2.47473C1.66407 15.8745 1.00737 15.3199 1.00737 14.6412V11.6233ZM11.7848 12.9871L13.648 11.0523C13.8083 10.8859 14.0659 10.8859 14.2262 11.0523C14.3864 11.2187 14.3864 11.4863 14.2262 11.6526L12.0738 13.8876C11.9984 13.9659 11.8947 14.0115 11.7848 14.0115C11.6779 14.0115 11.5711 13.9659 11.4957 13.8876L10.352 12.7C10.1917 12.5336 10.1917 12.266 10.352 12.0996C10.5122 11.9332 10.7699 11.9332 10.9301 12.0996L11.7848 12.9871Z" fill="#0F5B92"/>
</g>
<defs>
<clipPath id="clip0_791_33671">
<rect width="16.0875" height="16.7048" fill="white" transform="translate(0.19043 0.285522)"/>
</clipPath>
</defs>
</svg>
