<svg width="30" height="31" viewBox="0 0 30 31" fill="none" xmlns="http://www.w3.org/2000/svg">
<g clip-path="url(#clip0_1_42)">
<path d="M24.817 20.3209C24.4073 19.9504 23.9285 19.6642 23.4082 19.4787C22.8878 19.2933 22.336 19.2121 21.7843 19.24C21.2326 19.2679 20.6918 19.4042 20.1927 19.6411C19.6937 19.8781 19.2463 20.211 18.876 20.6209L17.96 21.6319C17.5718 22.0598 17.2763 22.5634 17.092 23.1109L17.01 23.3559L16.77 23.2609C12.6926 21.6535 9.35591 18.5916 7.40497 14.6669L7.27497 14.4069L7.55397 14.3229C8.28522 14.1013 8.94213 13.6843 9.45397 13.1169L10.369 12.1059C11.1171 11.2782 11.5059 10.1872 11.4496 9.07282C11.3933 7.95848 10.8967 6.91212 10.069 6.16394L8.52497 4.76395C7.69728 4.01609 6.60645 3.62757 5.49236 3.68383C4.37826 3.74008 3.33212 4.23651 2.58397 5.06394L1.66897 6.07695C1.54792 6.21121 1.43568 6.35318 1.33297 6.50195L1.29097 6.54795C0.716997 7.17773 0.309141 7.94071 0.104326 8.76783C-0.10049 9.59495 -0.095803 10.4601 0.117967 11.2849C1.0962 16.2882 3.66825 20.8402 7.44925 24.2598C11.2303 27.6793 16.0169 29.7826 21.093 30.2549C22.3483 30.3953 23.6156 30.1308 24.71 29.4999C25.0936 29.2795 25.4401 29 25.737 28.6719L26.652 27.6599C27.3988 26.8318 27.7867 25.7412 27.7304 24.6274C27.6742 23.5136 27.1785 22.4677 26.352 21.7189L24.817 20.3209Z" fill="white"/>
<path d="M23.241 14.584C23.2389 12.5095 22.4139 10.5206 20.9471 9.05358C19.4803 7.5866 17.4915 6.76138 15.417 6.759C15.1571 6.759 14.9078 6.65575 14.724 6.47196C14.5403 6.28818 14.437 6.03891 14.437 5.779C14.437 5.51909 14.5403 5.26982 14.724 5.08604C14.9078 4.90225 15.1571 4.799 15.417 4.799C18.0111 4.80244 20.498 5.83426 22.3326 7.66828C24.1672 9.50231 25.1998 11.9889 25.204 14.583C25.204 14.8432 25.1007 15.0927 24.9167 15.2767C24.7327 15.4606 24.4832 15.564 24.223 15.564C23.9628 15.564 23.7133 15.4606 23.5293 15.2767C23.3454 15.0927 23.242 14.8432 23.242 14.583L23.241 14.584ZM28.041 14.426C28.037 11.1214 26.7225 7.95327 24.3857 5.61665C22.0488 3.28003 18.8806 1.96571 15.576 1.962C15.3158 1.962 15.0663 1.85864 14.8823 1.67467C14.6984 1.4907 14.595 1.24118 14.595 0.981C14.595 0.720823 14.6984 0.471301 14.8823 0.287328C15.0663 0.103355 15.3158 3.87694e-09 15.576 0C19.4006 0.0044991 23.0673 1.52582 25.7718 4.23025C28.4762 6.93467 29.9975 10.6014 30.002 14.426C30.002 14.686 29.8987 14.9354 29.7148 15.1193C29.5309 15.3032 29.2816 15.4065 29.0215 15.4065C28.7615 15.4065 28.5121 15.3032 28.3282 15.1193C28.1443 14.9354 28.041 14.686 28.041 14.426Z" fill="white"/>
</g>
<defs>
<clipPath id="clip0_1_42">
<rect width="30.002" height="30.284" fill="white"/>
</clipPath>
</defs>
</svg>
