<svg width="45" height="45" viewBox="0 0 45 45" fill="none" xmlns="http://www.w3.org/2000/svg">
<path d="M41.7028 22.8333C41.7028 21.401 41.5742 20.0238 41.3355 18.7017H22.3118V26.5242H33.1825C32.7051 29.0399 31.2728 31.1699 29.1243 32.6022V37.6887H35.6798C39.4993 34.1631 41.7028 28.9848 41.7028 22.8333Z" fill="#4285F4"/>
<path d="M22.3117 42.5733C27.7654 42.5733 32.3377 40.7737 35.6798 37.6888L29.1243 32.6023C27.3247 33.8143 25.0294 34.5488 22.3117 34.5488C17.06 34.5488 12.5978 31.0048 11.0003 26.2305H4.27954V31.4455C7.60319 38.0377 14.4158 42.5733 22.3117 42.5733Z" fill="#34A853"/>
<path d="M11.0003 26.2124C10.5964 25.0005 10.3576 23.7151 10.3576 22.3746C10.3576 21.0341 10.5964 19.7487 11.0003 18.5368V13.3218H4.27959C2.90239 16.0395 2.11279 19.106 2.11279 22.3746C2.11279 25.6432 2.90239 28.7097 4.27959 31.4274L9.51296 27.3509L11.0003 26.2124Z" fill="#FBBC05"/>
<path d="M22.3117 10.2186C25.2865 10.2186 27.9307 11.247 30.0424 13.2301L35.8267 7.44588C32.3194 4.17732 27.7654 2.17578 22.3117 2.17578C14.4158 2.17578 7.60319 6.71137 4.27954 13.3219L11.0003 18.5369C12.5978 13.7626 17.06 10.2186 22.3117 10.2186Z" fill="#EA4335"/>
</svg>
