<svg width="24" height="34" viewBox="0 0 24 34" fill="none" xmlns="http://www.w3.org/2000/svg">
<path fill-rule="evenodd" clip-rule="evenodd" d="M13.3459 0.00392613C12.7448 0.00669231 12.1581 0.18745 11.6597 0.523387C11.1613 0.859323 10.7735 1.33538 10.5454 1.89147C10.3174 2.44756 10.2591 3.05876 10.378 3.64793C10.497 4.23709 10.7878 4.77781 11.2138 5.20184C11.6398 5.62588 12.1818 5.91421 12.7716 6.03046C13.3613 6.1467 13.9722 6.08565 14.5272 5.855C15.0823 5.62436 15.5565 5.23445 15.8902 4.73451C16.2238 4.23456 16.4019 3.64698 16.4019 3.04593C16.4015 2.64538 16.3221 2.24884 16.1682 1.87903C16.0143 1.50922 15.789 1.17341 15.5051 0.890828C15.2212 0.608247 14.8843 0.384452 14.5138 0.232262C14.1433 0.0800726 13.7464 0.00247896 13.3459 0.00392613ZM5.85488 5.98893C4.83048 6.1015 3.86668 6.53076 3.09773 7.2169C2.32877 7.90304 1.79296 8.81191 1.56489 9.81693L1.18289 11.2459L0.154885 15.0899C-0.321115 16.7989 0.316888 17.0899 2.23289 17.6019C4.14889 18.1139 4.84588 18.1839 5.28788 16.4659L7.33688 8.81593C7.85388 6.88793 7.03689 6.00693 5.85789 5.98993L5.85488 5.98893ZM11.4119 6.61593C10.7268 6.64466 10.0692 6.89375 9.53697 7.32615C9.00475 7.75856 8.62629 8.35119 8.45788 9.01593L6.17288 17.5459C6.02532 18.0549 6.00714 18.5926 6.11994 19.1103C6.23275 19.6281 6.47299 20.1095 6.81889 20.5109C6.76589 23.1759 6.43189 24.4719 5.81889 25.4929C5.07289 26.7319 3.55088 27.9469 1.09188 30.5029C0.936594 30.6645 0.814634 30.855 0.73298 31.0636C0.651326 31.2723 0.61158 31.495 0.615991 31.719C0.620402 31.943 0.668887 32.164 0.758691 32.3693C0.848495 32.5746 0.977857 32.7601 1.13938 32.9154C1.30091 33.0707 1.49144 33.1927 1.7001 33.2743C1.90875 33.356 2.13146 33.3957 2.35548 33.3913C2.5795 33.3869 2.80045 33.3384 3.00573 33.2486C3.21101 33.1588 3.3966 33.0294 3.55189 32.8679C5.86789 30.4599 7.53488 29.2559 8.74188 27.2529C9.71518 25.4792 10.2188 23.4861 10.2049 21.4629C10.7229 21.2976 11.19 21.0023 11.5617 20.6053C11.9333 20.2083 12.1971 19.7228 12.3279 19.1949L14.1379 12.4429C14.8287 13.298 15.7158 13.9735 16.7239 14.4119C18.005 14.7876 19.3475 14.9075 20.6749 14.7649L18.7849 32.5869C18.7729 32.6774 18.7791 32.7693 18.8033 32.8573C18.8274 32.9453 18.8689 33.0275 18.9254 33.0992C18.9818 33.1709 19.052 33.2305 19.1319 33.2746C19.2118 33.3187 19.2997 33.3463 19.3904 33.3559C19.4812 33.3654 19.5729 33.3567 19.6602 33.3302C19.7475 33.3038 19.8286 33.2601 19.8988 33.2017C19.9689 33.1434 20.0266 33.0716 20.0686 32.9905C20.1105 32.9095 20.1358 32.8209 20.1429 32.7299L22.0429 14.7459H22.1289C22.4332 14.7488 22.7271 14.6353 22.9505 14.4288C23.174 14.2223 23.3102 13.9382 23.3312 13.6346C23.3523 13.3311 23.2566 13.0309 23.0639 12.7955C22.8711 12.5601 22.5956 12.4071 22.2939 12.3679L22.3939 11.4189C22.4033 11.3298 22.3952 11.2397 22.3698 11.1538C22.3444 11.0679 22.3024 10.9878 22.2461 10.9181C22.1898 10.8484 22.1203 10.7905 22.0416 10.7476C21.9629 10.7048 21.8765 10.6779 21.7874 10.6684C21.6983 10.659 21.6082 10.6672 21.5223 10.6925C21.4363 10.7179 21.3562 10.7599 21.2865 10.8162C21.2168 10.8726 21.1589 10.9421 21.1161 11.0208C21.0732 11.0995 21.0463 11.1858 21.0369 11.2749L20.9219 12.3589C19.7998 12.4465 18.6711 12.386 17.5649 12.1789C14.8819 11.1509 14.9729 7.59093 12.4859 6.75593C12.2262 6.67568 11.9574 6.62897 11.6859 6.61693C11.5909 6.61693 11.4969 6.61693 11.4039 6.61693L11.4119 6.61593ZM13.0009 20.0159C12.7702 20.561 12.4245 21.0498 11.9875 21.449C11.5505 21.8482 11.0325 22.1483 10.4689 22.3289C11.1893 23.0857 11.7715 23.963 12.1889 24.9209C12.5889 26.0359 12.5569 27.7299 12.7889 31.7779C12.7983 32.004 12.8525 32.226 12.9485 32.4309C13.0445 32.6358 13.1803 32.8196 13.348 32.9716C13.5157 33.1235 13.712 33.2405 13.9254 33.3159C14.1388 33.3912 14.365 33.4234 14.5909 33.4104C14.8169 33.3975 15.038 33.3398 15.2413 33.2405C15.4447 33.1413 15.6263 33.0027 15.7756 32.8326C15.9249 32.6625 16.0388 32.4644 16.1108 32.2499C16.1828 32.0353 16.2114 31.8086 16.1949 31.5829C15.9699 27.6409 16.1149 25.7709 15.4019 23.7739C14.8468 22.3807 14.0324 21.1055 13.0019 20.0159H13.0009Z" fill="white"/>
</svg>
