<svg width="42" height="42" viewBox="0 0 42 42" fill="none" xmlns="http://www.w3.org/2000/svg">
<path d="M22.4533 29.8041V21.3618H25.3504L25.7851 18.0707H22.4533V15.9699C22.4533 15.0173 22.7228 14.3682 24.1214 14.3682L25.9023 14.3674V11.4238C25.5943 11.3846 24.5371 11.2949 23.3066 11.2949C20.7372 11.2949 18.9781 12.8284 18.9781 15.6439V18.0707H16.0722V21.3618H18.9781V29.8041H22.4533Z" fill="white"/>
<path d="M20.9872 41.0433C32.1891 41.0433 41.2701 31.9623 41.2701 20.7604C41.2701 9.55849 32.1891 0.477539 20.9872 0.477539C9.78529 0.477539 0.704346 9.55849 0.704346 20.7604C0.704346 31.9623 9.78529 41.0433 20.9872 41.0433Z" fill="white" fill-opacity="0.04"/>
</svg>
