<svg width="41" height="42" viewBox="0 0 41 42" fill="none" xmlns="http://www.w3.org/2000/svg">
<path d="M20.6844 41.0433C31.8863 41.0433 40.9673 31.9623 40.9673 20.7604C40.9673 9.55849 31.8863 0.477539 20.6844 0.477539C9.4825 0.477539 0.40155 9.55849 0.40155 20.7604C0.40155 31.9623 9.4825 41.0433 20.6844 41.0433Z" fill="white" fill-opacity="0.04"/>
<path d="M17.4391 26.1688H14.7347V18.0557H17.4391V26.1688ZM16.0875 16.9739C15.3394 16.9739 14.7347 16.3676 14.7347 15.6212C14.7347 14.8748 15.3405 14.2695 16.0875 14.2695C16.8328 14.2695 17.4391 14.8759 17.4391 15.6212C17.4391 16.3676 16.8328 16.9739 16.0875 16.9739ZM27.1749 26.1688H24.5749V22.2204C24.5749 21.2787 24.5571 20.0677 23.2233 20.0677C21.8694 20.0677 21.6612 21.0932 21.6612 22.1523V26.1688H19.0618V18.0497H21.5574V19.1591H21.5925C21.9398 18.5208 22.7884 17.848 24.054 17.848C26.6881 17.848 27.1749 19.5296 27.1749 21.7158V26.1688Z" fill="white"/>
<path d="M17.4391 26.1688H14.7347V18.0557H17.4391V26.1688ZM16.0875 16.9739C15.3394 16.9739 14.7347 16.3676 14.7347 15.6212C14.7347 14.8748 15.3405 14.2695 16.0875 14.2695C16.8328 14.2695 17.4391 14.8759 17.4391 15.6212C17.4391 16.3676 16.8328 16.9739 16.0875 16.9739ZM27.1749 26.1688H24.5749V22.2204C24.5749 21.2787 24.5571 20.0677 23.2233 20.0677C21.8694 20.0677 21.6612 21.0932 21.6612 22.1523V26.1688H19.0618V18.0497H21.5574V19.1591H21.5925C21.9398 18.5208 22.7884 17.848 24.054 17.848C26.6881 17.848 27.1749 19.5296 27.1749 21.7158V26.1688Z" fill="white"/>
</svg>
