<svg width="28" height="27" viewBox="0 0 28 27" fill="none" xmlns="http://www.w3.org/2000/svg">
<g clip-path="url(#clip0_25_88)">
<path d="M14.1983 0.0297852C6.89216 0.0297852 0.968506 5.95344 0.968506 13.2596C0.968506 20.5658 6.89216 26.4895 14.1983 26.4895C21.5045 26.4895 27.4282 20.5658 27.4282 13.2596C27.4282 5.95344 21.5045 0.0297852 14.1983 0.0297852ZM20.6876 7.9098L18.7659 10.989L17.4843 13.043C17.4893 13.1157 17.5058 13.1852 17.5058 13.2596C17.5058 15.087 16.0257 16.5671 14.1983 16.5671C14.1239 16.5671 14.0545 16.5505 13.9817 16.5456L11.9261 17.8272L8.84853 19.7489C8.71457 19.8332 8.56243 19.8745 8.41029 19.8745C8.19696 19.8745 7.98528 19.7918 7.82487 19.6331C7.552 19.3602 7.50404 18.9369 7.70911 18.6111L9.63074 15.5318L10.9124 13.4779C10.9074 13.4035 10.8909 13.334 10.8909 13.2596C10.8909 11.4322 12.371 9.95216 14.1983 9.95216C14.2728 9.95216 14.3422 9.9687 14.415 9.97366L16.4706 8.69202L19.5482 6.77039C19.869 6.56698 20.2973 6.61493 20.5702 6.8878C20.8447 7.15901 20.8926 7.58237 20.6876 7.9098ZM12.5446 13.2596C12.5446 13.4768 12.5874 13.6918 12.6705 13.8925C12.7536 14.0931 12.8754 14.2754 13.029 14.429C13.1825 14.5825 13.3648 14.7044 13.5655 14.7875C13.7661 14.8706 13.9812 14.9133 14.1983 14.9133C14.6369 14.9133 15.0576 14.7391 15.3677 14.429C15.5213 14.2754 15.6431 14.0931 15.7262 13.8925C15.8093 13.6918 15.8521 13.4768 15.8521 13.2596C15.8521 12.821 15.6778 12.4004 15.3677 12.0903C15.0576 11.7801 14.6369 11.6059 14.1983 11.6059C13.7597 11.6059 13.3391 11.7801 13.029 12.0903C12.7188 12.4004 12.5446 12.821 12.5446 13.2596Z" fill="white"/>
</g>
<defs>
<clipPath id="clip0_25_88">
<rect width="26.4597" height="26.4597" fill="white" transform="translate(0.968506 0.0297852)"/>
</clipPath>
</defs>
</svg>
