<svg width="41" height="42" viewBox="0 0 41 42" fill="none" xmlns="http://www.w3.org/2000/svg">
<path d="M20.5329 41.0433C31.7348 41.0433 40.8158 31.9623 40.8158 20.7604C40.8158 9.55849 31.7348 0.477539 20.5329 0.477539C9.33101 0.477539 0.250061 9.55849 0.250061 20.7604C0.250061 31.9623 9.33101 41.0433 20.5329 41.0433Z" fill="white" fill-opacity="0.04"/>
<path d="M17.5737 13.6611C15.2908 13.6611 13.4338 15.5199 13.4338 17.8034V23.7192C13.4338 26.0021 15.2925 27.8591 17.576 27.8591H23.4919C25.7748 27.8591 27.6318 26.0004 27.6318 23.7169V17.8011C27.6318 15.5181 25.7731 13.6611 23.4895 13.6611H17.5737ZM24.6739 16.0275C25.0004 16.0275 25.2654 16.2925 25.2654 16.6191C25.2654 16.9456 25.0004 17.2106 24.6739 17.2106C24.3473 17.2106 24.0823 16.9456 24.0823 16.6191C24.0823 16.2925 24.3473 16.0275 24.6739 16.0275ZM20.5328 17.2106C22.4903 17.2106 24.0823 18.8026 24.0823 20.7601C24.0823 22.7177 22.4903 24.3096 20.5328 24.3096C18.5752 24.3096 16.9833 22.7177 16.9833 20.7601C16.9833 18.8026 18.5752 17.2106 20.5328 17.2106ZM20.5328 18.3938C19.9052 18.3938 19.3033 18.6431 18.8595 19.0869C18.4158 19.5307 18.1664 20.1325 18.1664 20.7601C18.1664 21.3877 18.4158 21.9896 18.8595 22.4334C19.3033 22.8772 19.9052 23.1265 20.5328 23.1265C21.1604 23.1265 21.7623 22.8772 22.206 22.4334C22.6498 21.9896 22.8991 21.3877 22.8991 20.7601C22.8991 20.1325 22.6498 19.5307 22.206 19.0869C21.7623 18.6431 21.1604 18.3938 20.5328 18.3938Z" fill="white"/>
<path d="M17.5737 13.6611C15.2908 13.6611 13.4338 15.5199 13.4338 17.8034V23.7192C13.4338 26.0021 15.2925 27.8591 17.576 27.8591H23.4919C25.7748 27.8591 27.6318 26.0004 27.6318 23.7169V17.8011C27.6318 15.5181 25.7731 13.6611 23.4895 13.6611H17.5737ZM24.6739 16.0275C25.0004 16.0275 25.2654 16.2925 25.2654 16.6191C25.2654 16.9456 25.0004 17.2106 24.6739 17.2106C24.3473 17.2106 24.0823 16.9456 24.0823 16.6191C24.0823 16.2925 24.3473 16.0275 24.6739 16.0275ZM20.5328 17.2106C22.4903 17.2106 24.0823 18.8026 24.0823 20.7601C24.0823 22.7177 22.4903 24.3096 20.5328 24.3096C18.5752 24.3096 16.9833 22.7177 16.9833 20.7601C16.9833 18.8026 18.5752 17.2106 20.5328 17.2106ZM20.5328 18.3938C19.9052 18.3938 19.3033 18.6431 18.8595 19.0869C18.4158 19.5307 18.1664 20.1325 18.1664 20.7601C18.1664 21.3877 18.4158 21.9896 18.8595 22.4334C19.3033 22.8772 19.9052 23.1265 20.5328 23.1265C21.1604 23.1265 21.7623 22.8772 22.206 22.4334C22.6498 21.9896 22.8991 21.3877 22.8991 20.7601C22.8991 20.1325 22.6498 19.5307 22.206 19.0869C21.7623 18.6431 21.1604 18.3938 20.5328 18.3938Z" fill="white"/>
</svg>
