<svg width="20" height="21" viewBox="0 0 20 21" fill="none" xmlns="http://www.w3.org/2000/svg">
<path d="M10.1552 19.4622L9.88372 19.3342C7.48753 18.2032 5.43251 16.5261 3.77611 14.3491C3.21134 13.6071 2.90039 12.674 2.90039 11.7215V1.29578L3.85161 1.71956C5.01126 2.23625 5.95019 2.47686 6.80605 2.47686C8.30442 2.47686 9.79061 1.53084 9.80545 1.5213L10.1552 1.29622L10.5111 1.51155C10.5257 1.52031 12.0673 2.44205 13.56 2.44205C14.6387 2.44205 15.6727 2.05441 16.453 1.71667L17.3977 1.30797V11.8217C17.3977 12.7207 17.1303 13.5803 16.6246 14.3083C15.08 16.5305 12.9958 18.2243 10.4301 19.3424L10.1552 19.4622ZM4.26474 3.40636V11.7215C4.26474 12.3565 4.47137 12.9778 4.84671 13.4709C6.30418 15.3862 8.09641 16.8793 10.1771 17.9128C12.3819 16.898 14.1777 15.4075 15.5181 13.4791C15.855 12.9942 16.0332 12.421 16.0332 11.8217V3.39705C15.3031 3.65185 14.4597 3.85875 13.56 3.85875C12.1592 3.85875 10.8007 3.25279 10.1758 2.92969C9.56049 3.26632 8.2238 3.89368 6.80605 3.89368C5.87961 3.89379 4.99834 3.66804 4.26474 3.40636ZM14.3835 7.83033L13.4187 6.82854L9.40715 10.9943L7.18619 8.68809L6.22131 9.68989L9.40715 12.9979L14.3835 7.83033Z" fill="#0F5B92"/>
</svg>
