<svg width="32" height="28" viewBox="0 0 32 28" fill="none" xmlns="http://www.w3.org/2000/svg">
<g clip-path="url(#clip0_1_49)">
<path d="M4.35207 21.5079C4.35227 21.7337 4.28549 21.9544 4.16019 22.1422C4.03489 22.33 3.8567 22.4764 3.64817 22.5629C3.43964 22.6494 3.21014 22.672 2.98871 22.6281C2.76729 22.5841 2.56389 22.4754 2.40426 22.3157C2.24462 22.1561 2.13594 21.9527 2.09195 21.7313C2.04795 21.5099 2.07063 21.2804 2.15711 21.0718C2.24359 20.8633 2.39 20.6851 2.57779 20.5598C2.76558 20.4345 2.98631 20.3677 3.21206 20.3679C3.51433 20.3682 3.80415 20.4884 4.01788 20.7021C4.23161 20.9159 4.35181 21.2057 4.35207 21.5079Z" fill="white"/>
<path d="M10.085 13.588C10.023 13.53 9.96399 13.47 9.90099 13.414C9.83363 13.3533 9.79316 13.2683 9.78847 13.1777C9.78378 13.0871 9.81527 12.9984 9.876 12.931C9.93095 12.8722 10.0051 12.835 10.085 12.826V0L0 2.21V27.854L10.085 25.645V13.588ZM2.908 12.702C3.15271 11.9516 3.67697 11.3242 4.37199 10.95C4.41255 10.928 4.45715 10.9144 4.50309 10.9101C4.54903 10.9057 4.59537 10.9108 4.63933 10.9248C4.68328 10.9389 4.72394 10.9617 4.75885 10.9918C4.79376 11.022 4.82219 11.059 4.84245 11.1004C4.86271 11.1419 4.87437 11.187 4.87672 11.2331C4.87908 11.2792 4.87208 11.3253 4.85616 11.3686C4.84023 11.4119 4.81571 11.4515 4.78406 11.4851C4.75241 11.5187 4.71429 11.5455 4.672 11.564C4.1334 11.8643 3.72989 12.359 3.544 12.947C3.5191 13.0116 3.47517 13.0671 3.41803 13.1062C3.36089 13.1453 3.29324 13.1662 3.224 13.166C3.18196 13.1657 3.1403 13.1579 3.101 13.143C3.0588 13.1273 3.02011 13.1035 2.98718 13.0728C2.95425 13.0421 2.92772 13.0052 2.90913 12.9642C2.89053 12.9232 2.88024 12.8789 2.87885 12.8339C2.87745 12.7889 2.88498 12.7441 2.90099 12.702H2.908ZM2.47099 14.835C2.47386 14.7899 2.48579 14.7459 2.50606 14.7055C2.52633 14.6652 2.55453 14.6293 2.58897 14.6001C2.62342 14.5709 2.6634 14.5489 2.70654 14.5355C2.74967 14.5221 2.79506 14.5175 2.84 14.522C2.88474 14.5254 2.92836 14.5376 2.96838 14.5579C3.00839 14.5782 3.044 14.6062 3.07317 14.6403C3.10234 14.6744 3.1245 14.7139 3.13837 14.7566C3.15224 14.7993 3.15755 14.8443 3.154 14.889C3.128 15.221 3.117 15.559 3.117 15.894C3.117 16.244 3.12899 16.594 3.14899 16.927C3.1517 16.9719 3.14554 17.0168 3.13087 17.0593C3.11621 17.1017 3.09332 17.1409 3.06351 17.1745C3.0337 17.2081 2.99756 17.2355 2.95715 17.2552C2.91674 17.2748 2.87285 17.2863 2.828 17.289H2.807C2.7199 17.2887 2.63619 17.2552 2.57286 17.1954C2.50953 17.1356 2.47133 17.0539 2.466 16.967C2.445 16.618 2.433 16.257 2.433 15.893C2.433 15.529 2.445 15.185 2.473 14.834L2.47099 14.835ZM3.212 23.335C2.76405 23.3348 2.33185 23.1696 1.9979 22.8711C1.66395 22.5725 1.45162 22.1614 1.40142 21.7163C1.35122 21.2712 1.46666 20.8231 1.72573 20.4577C1.9848 20.0923 2.36935 19.835 2.806 19.735C2.775 19.562 2.73599 19.345 2.69299 19.072C2.68426 19.0267 2.6848 18.98 2.69457 18.9349C2.70434 18.8898 2.72315 18.8471 2.74986 18.8095C2.77656 18.7718 2.8106 18.74 2.84995 18.7158C2.88929 18.6917 2.93311 18.6758 2.97878 18.669C3.02444 18.6623 3.071 18.6648 3.11565 18.6765C3.16029 18.6882 3.20211 18.7089 3.23857 18.7372C3.27503 18.7655 3.30538 18.8009 3.3278 18.8413C3.35021 18.8816 3.36423 18.9261 3.369 18.972C3.419 19.296 3.46899 19.547 3.49799 19.719C3.95116 19.7901 4.3608 20.0296 4.64504 20.3896C4.92929 20.7496 5.06719 21.2036 5.03119 21.6609C4.99519 22.1182 4.78793 22.5451 4.45085 22.8562C4.11377 23.1673 3.6717 23.3397 3.213 23.339L3.212 23.335ZM8.771 12.071C8.72346 12.1481 8.64727 12.2032 8.55916 12.2242C8.47104 12.2452 8.3782 12.2304 8.30099 12.183C7.75025 11.8299 7.14058 11.5786 6.501 11.441C6.41202 11.4234 6.33369 11.3711 6.28324 11.2957C6.23279 11.2203 6.21436 11.128 6.23199 11.039C6.24963 10.95 6.30189 10.8717 6.37728 10.8212C6.45267 10.7708 6.54501 10.7524 6.634 10.77C7.3549 10.9219 8.04233 11.2031 8.66299 11.6C8.70127 11.6234 8.73455 11.6542 8.76091 11.6906C8.78727 11.7269 8.80619 11.7681 8.8166 11.8117C8.827 11.8554 8.82869 11.9007 8.82155 11.945C8.81441 11.9893 8.79859 12.0318 8.77499 12.07L8.771 12.071Z" fill="white"/>
<path d="M21.5381 18.274C21.6991 18.174 21.8601 18.074 22.0201 17.967C22.0945 17.9177 22.1854 17.8994 22.2731 17.9161C22.3608 17.9328 22.4385 17.9832 22.4896 18.0565C22.5407 18.1298 22.5611 18.2201 22.5464 18.3083C22.5317 18.3964 22.4832 18.4752 22.4111 18.528C22.1323 18.7225 21.8406 18.8979 21.5381 19.053V27.853L31.6241 25.644V0L21.5381 2.21V18.274ZM28.2151 9.766C28.1992 9.84285 28.1573 9.91186 28.0965 9.96141C28.0356 10.011 27.9596 10.038 27.8811 10.038C27.8572 10.038 27.8334 10.0353 27.8101 10.03C27.7223 10.0114 27.6452 9.9591 27.5957 9.88427C27.5461 9.80944 27.5279 9.71811 27.5451 9.63C27.6812 8.96351 27.7728 8.28868 27.8191 7.61C27.8257 7.51943 27.8681 7.4352 27.9368 7.37585C28.0055 7.31649 28.095 7.28687 28.1856 7.2935C28.2762 7.30013 28.3604 7.34247 28.4197 7.4112C28.4791 7.47993 28.5087 7.56943 28.5021 7.66C28.4534 8.36959 28.3575 9.07514 28.2151 9.772V9.766ZM26.8651 3.685C26.8333 3.65322 26.8081 3.61549 26.7909 3.57397C26.7737 3.53245 26.7649 3.48794 26.7649 3.443C26.7649 3.39806 26.7737 3.35355 26.7909 3.31203C26.8081 3.27051 26.8333 3.23278 26.8651 3.201C26.8969 3.16922 26.9346 3.14401 26.9761 3.12681C27.0177 3.10961 27.0621 3.10076 27.1071 3.10076C27.152 3.10076 27.1965 3.10961 27.2381 3.12681C27.2796 3.14401 27.3173 3.16922 27.3491 3.201L28.1551 4.008L28.9621 3.201C29.0263 3.13682 29.1133 3.10076 29.2041 3.10076C29.2949 3.10076 29.3819 3.13682 29.4461 3.201C29.5103 3.26518 29.5463 3.35223 29.5463 3.443C29.5463 3.53377 29.5103 3.62082 29.4461 3.685L28.6391 4.492L29.4451 5.298C29.4769 5.32978 29.5021 5.36751 29.5193 5.40903C29.5365 5.45055 29.5453 5.49506 29.5453 5.54C29.5453 5.58494 29.5365 5.62945 29.5193 5.67097C29.5021 5.71249 29.4769 5.75022 29.4451 5.782C29.4133 5.81378 29.3756 5.83899 29.3341 5.85619C29.2926 5.87339 29.248 5.88224 29.2031 5.88224C29.1582 5.88224 29.1136 5.87339 29.0721 5.85619C29.0306 5.83899 28.9929 5.81378 28.9611 5.782L28.5451 5.365C28.5451 5.414 28.5451 5.455 28.5451 5.508C28.5473 5.59854 28.5134 5.68624 28.451 5.75185C28.3885 5.81747 28.3026 5.85564 28.2121 5.858H28.2031C28.1138 5.85803 28.028 5.82309 27.9641 5.76068C27.9001 5.69826 27.8632 5.61331 27.8611 5.524C27.8611 5.432 27.8561 5.356 27.8521 5.274L27.3451 5.782C27.2809 5.84618 27.1939 5.88224 27.1031 5.88224C27.0123 5.88224 26.9253 5.84618 26.8611 5.782C26.7969 5.71782 26.7609 5.63077 26.7609 5.54C26.7609 5.44923 26.7969 5.36218 26.8611 5.298L27.6681 4.491L26.8651 3.685ZM25.9321 13.328C26.2801 12.742 26.5711 12.202 26.8061 11.77C26.8491 11.691 26.8891 11.611 26.9281 11.529C26.947 11.4877 26.9739 11.4506 27.0073 11.4198C27.0406 11.389 27.0798 11.3651 27.1225 11.3496C27.1652 11.3341 27.2105 11.3273 27.2559 11.3295C27.3012 11.3318 27.3457 11.343 27.3867 11.3626C27.4277 11.3822 27.4643 11.4097 27.4945 11.4436C27.5247 11.4775 27.5479 11.5171 27.5626 11.5601C27.5774 11.603 27.5834 11.6485 27.5804 11.6938C27.5774 11.7391 27.5654 11.7834 27.5451 11.824C27.5011 11.916 27.4551 12.007 27.4071 12.096C27.1691 12.536 26.8731 13.081 26.5211 13.677C26.4907 13.7282 26.4476 13.7706 26.3958 13.8001C26.3441 13.8295 26.2856 13.845 26.2261 13.845C26.1648 13.8451 26.1047 13.8285 26.0521 13.797C26.0133 13.7741 25.9793 13.7438 25.9522 13.7077C25.9252 13.6717 25.9055 13.6306 25.8943 13.587C25.8832 13.5433 25.8808 13.4978 25.8873 13.4532C25.8937 13.4086 25.909 13.3667 25.9321 13.328ZM23.5321 16.64C23.9951 16.1409 24.425 15.6121 24.8191 15.057C24.8454 15.0206 24.8785 14.9897 24.9167 14.966C24.955 14.9424 24.9975 14.9266 25.0418 14.9194C25.0861 14.9122 25.1315 14.9138 25.1752 14.9241C25.2189 14.9344 25.2602 14.9532 25.2966 14.9795C25.333 15.0058 25.364 15.039 25.3876 15.0772C25.4112 15.1154 25.427 15.1579 25.4342 15.2022C25.4414 15.2465 25.4398 15.2919 25.4295 15.3356C25.4192 15.3793 25.4003 15.4206 25.3741 15.457C24.9627 16.0365 24.5141 16.5886 24.0311 17.11C24.0004 17.1428 23.9635 17.1693 23.9225 17.1879C23.8816 17.2064 23.8374 17.2168 23.7924 17.2182C23.7475 17.2197 23.7027 17.2123 23.6606 17.1965C23.6185 17.1807 23.5799 17.1567 23.5471 17.126C23.5143 17.0953 23.4878 17.0584 23.4692 17.0174C23.4507 16.9765 23.4403 16.9323 23.4388 16.8873C23.4374 16.8424 23.4447 16.7976 23.4606 16.7555C23.4764 16.7134 23.5004 16.6748 23.5311 16.642L23.5321 16.64Z" fill="white"/>
<path d="M20.855 19.357C20.721 19.407 20.586 19.457 20.455 19.494C20.4114 19.5086 20.3653 19.5142 20.3195 19.5105C20.2736 19.5068 20.229 19.494 20.1882 19.4726C20.1475 19.4513 20.1114 19.422 20.0823 19.3864C20.0531 19.3509 20.0314 19.3098 20.0185 19.2657C20.0056 19.2215 20.0017 19.1752 20.0071 19.1296C20.0125 19.0839 20.027 19.0398 20.0499 18.9998C20.0727 18.9599 20.1033 18.925 20.14 18.8972C20.1766 18.8694 20.2184 18.8493 20.263 18.838C20.4672 18.7766 20.6676 18.7031 20.863 18.618V2.209L10.769 0V13.3C11.161 13.674 11.539 14.052 11.869 14.389C11.932 14.4544 11.9665 14.5421 11.9648 14.6329C11.9631 14.7236 11.9254 14.81 11.86 14.873C11.8277 14.9042 11.7895 14.9287 11.7476 14.9451C11.7058 14.9615 11.6611 14.9696 11.6162 14.9687C11.5254 14.9671 11.439 14.9294 11.376 14.864C11.191 14.672 10.984 14.464 10.776 14.251V25.651L20.862 27.86L20.855 19.357ZM14.855 17.766C14.8228 17.8044 14.7826 17.8354 14.7372 17.8566C14.6917 17.8779 14.6422 17.8889 14.592 17.889C14.5123 17.8892 14.4351 17.8612 14.3741 17.81C13.9121 17.425 13.42 16.966 12.826 16.365C12.7931 16.3334 12.7669 16.2955 12.7488 16.2536C12.7308 16.2117 12.7213 16.1665 12.721 16.1209C12.7206 16.0753 12.7294 16.03 12.7469 15.9878C12.7643 15.9457 12.7899 15.9074 12.8224 15.8753C12.8548 15.8432 12.8934 15.8179 12.9357 15.8009C12.9781 15.7839 13.0234 15.7756 13.0691 15.7764C13.1147 15.7772 13.1597 15.7872 13.2014 15.8056C13.2431 15.8241 13.2808 15.8508 13.312 15.884C13.89 16.469 14.367 16.914 14.812 17.284C14.8466 17.3126 14.8751 17.3478 14.896 17.3875C14.9169 17.4272 14.9298 17.4707 14.9339 17.5154C14.938 17.5601 14.9332 17.6051 14.9198 17.6479C14.9065 17.6908 14.8848 17.7306 14.856 17.765L14.855 17.766ZM18.297 19.676C18.2827 19.6769 18.2683 19.6769 18.254 19.676C17.5284 19.5791 16.8246 19.3589 16.173 19.025L16.159 19.017C16.0827 18.9758 16.0249 18.9072 15.9973 18.825C15.9697 18.7428 15.9744 18.6531 16.0103 18.5742C16.0463 18.4953 16.1109 18.433 16.191 18.3999C16.2712 18.3668 16.3609 18.3654 16.442 18.396C16.455 18.396 16.4681 18.408 16.4821 18.414C17.063 18.7118 17.6902 18.9089 18.337 18.997C18.4244 19.0064 18.5048 19.0491 18.5616 19.1163C18.6183 19.1834 18.647 19.2698 18.6418 19.3576C18.6365 19.4453 18.5976 19.5276 18.5332 19.5875C18.4689 19.6473 18.3839 19.6801 18.2961 19.679L18.297 19.676Z" fill="white"/>
</g>
<defs>
<clipPath id="clip0_1_49">
<rect width="31.624" height="27.855" fill="white"/>
</clipPath>
</defs>
</svg>
