<svg width="19" height="20" viewBox="0 0 19 20" fill="none" xmlns="http://www.w3.org/2000/svg">
<g clip-path="url(#clip0_791_33673)">
<path d="M18.8241 15.459L17.138 5.52933C17.0218 4.84546 16.5829 4.28038 15.9638 4.01779L11.9403 2.31119C11.767 2.23771 11.5864 2.19225 11.4045 2.17351L11.1873 0.894224C11.1367 0.596119 10.8631 0.397114 10.5758 0.449624C10.2887 0.502171 10.097 0.786463 10.1476 1.08457L10.3649 2.364C10.2026 2.44508 10.0501 2.55017 9.91313 2.67829L9.4574 3.10447L9.38984 3.04082C9.25122 2.91022 9.09655 2.80337 8.93179 2.72115L9.20969 1.08457C9.2603 0.786463 9.06861 0.502171 8.78152 0.449624C8.49446 0.396895 8.22064 0.596082 8.17004 0.894224L7.8921 2.53092C7.71287 2.54948 7.53498 2.5941 7.36402 2.66587L3.30422 4.36947C2.68144 4.63081 2.23996 5.19691 2.1233 5.88385L0.865534 13.2909C0.680217 14.3823 1.38453 15.4267 2.43556 15.6191L7.57629 16.5604L7.73405 17.4895C7.89942 18.4634 8.71804 19.1505 9.6392 19.1505C9.75037 19.1505 9.86309 19.1405 9.97626 19.1198L17.2542 17.7872C18.3051 17.5948 19.0095 16.5504 18.8241 15.459ZM17.0708 16.7076L9.79292 18.0401C9.56146 18.0825 9.32804 18.0288 9.13551 17.8888C8.94301 17.7488 8.81453 17.5394 8.77371 17.2991L8.68267 16.7629L9.71338 16.9517C9.82695 16.9724 9.94065 16.9827 10.0536 16.9827C10.4471 16.9827 10.8306 16.858 11.1596 16.6187C11.5832 16.3108 11.8658 15.8501 11.9556 15.3214L13.214 7.91081C13.3301 7.2269 13.1037 6.54003 12.6085 6.07343L10.2432 3.84488L10.6195 3.49291C10.7834 3.33973 10.9957 3.25893 11.2102 3.25893C11.3221 3.25893 11.4346 3.28093 11.541 3.32606L15.5645 5.03266C15.8459 5.15204 16.0454 5.40885 16.0982 5.71971L17.7844 15.6493C17.8687 16.1454 17.5485 16.6201 17.0708 16.7076ZM1.90519 13.4812L3.16303 6.0742C3.21606 5.76195 3.41672 5.50463 3.6998 5.38583L7.69168 3.7107L7.57728 4.38452C7.52667 4.68263 7.71836 4.96692 8.00545 5.01947C8.03645 5.02517 8.06728 5.02787 8.09772 5.02787C8.34905 5.02787 8.57178 4.84074 8.61693 4.57483L8.73141 3.90075L11.8991 6.88527C12.1242 7.09736 12.2271 7.40957 12.1743 7.72043L10.9159 15.131C10.8751 15.3713 10.7466 15.5808 10.5541 15.7207C10.3616 15.8607 10.1282 15.9144 9.89673 15.8721L2.61883 14.5395C2.14111 14.4521 1.82098 13.9773 1.90519 13.4812Z" fill="#0F5B92"/>
<path d="M6.15332 13.1887L6.06903 13.685C6.03528 13.8837 6.1631 14.0732 6.3545 14.1083C6.37516 14.1121 6.39571 14.1139 6.41602 14.1139C6.58356 14.1139 6.73207 13.9891 6.76216 13.8118L6.85112 13.2881C7.21278 13.2869 7.55797 13.1825 7.86428 12.9793C8.22889 12.7373 8.50958 12.3705 8.6546 11.9463C8.94986 11.0826 8.63254 10.2264 7.84622 9.76509C7.7163 9.68887 7.59679 9.61677 7.48625 9.54796L7.83785 7.47745C8.085 7.57198 8.22724 7.72768 8.32194 7.83153C8.3489 7.8611 8.37437 7.88905 8.40042 7.91405C8.54315 8.05104 8.76577 8.04194 8.8977 7.8938C9.02963 7.74563 9.02091 7.51443 8.87821 7.37743C8.86937 7.36896 8.8509 7.34871 8.83306 7.32913C8.70545 7.18914 8.43874 6.89669 7.96119 6.75111L8.03386 6.32307C8.06761 6.12432 7.9398 5.93481 7.74839 5.89977C7.55699 5.86476 7.37449 5.99741 7.34074 6.19619L7.26075 6.66718C7.18825 6.66999 7.11326 6.67562 7.03493 6.68526C6.45557 6.75663 5.96131 7.17079 5.74496 7.76616C5.54831 8.30734 5.62837 8.87764 5.95392 9.2545C6.13558 9.46479 6.37284 9.67027 6.71096 9.90468L6.27554 12.4688C5.93277 12.3868 5.72384 12.2719 5.38868 11.9452C5.247 11.8071 5.02428 11.8143 4.89125 11.9615C4.75823 12.1086 4.76523 12.3399 4.90695 12.478C5.36313 12.9226 5.69396 13.0824 6.15332 13.1887ZM7.99132 11.7018C7.854 12.1035 7.49167 12.492 6.97651 12.5497L7.3558 10.316C7.40253 10.344 7.45057 10.3724 7.49994 10.4014C8.2233 10.8258 8.05896 11.5041 7.99132 11.7018ZM6.47785 8.76649C6.32843 8.5935 6.29992 8.30906 6.40346 8.02414C6.50002 7.75838 6.73841 7.45775 7.1178 7.41102C7.12354 7.41032 7.12903 7.40985 7.13473 7.40919L6.84616 9.10855C6.69216 8.98734 6.57188 8.87527 6.47785 8.76649Z" fill="#0F5B92"/>
</g>
<defs>
<clipPath id="clip0_791_33673">
<rect width="18.018" height="18.7094" fill="white" transform="translate(0.835938 0.441162)"/>
</clipPath>
</defs>
</svg>
