<svg width="30" height="28" viewBox="0 0 30 28" fill="none" xmlns="http://www.w3.org/2000/svg">
<path d="M14.7425 6.63108C6.28158 10.4896 0.163158 13.3134 0.104887 13.382C0.0466165 13.4506 0 13.5592 0 13.6336C0 13.7079 0.0466165 13.8165 0.104887 13.8851C0.233083 14.0337 8.46673 18.0065 8.65319 18.0065C8.77556 18.0065 11.1297 16.3145 15.6224 12.999C16.1934 12.576 16.6771 12.2331 16.6945 12.2331C16.7179 12.2331 15.3427 13.6336 13.6412 15.3427C11.9455 17.0519 10.5353 18.5096 10.5179 18.5839C10.5004 18.6582 10.6286 20.5446 10.8034 22.7796L11.1239 26.8382L11.2754 26.964C11.357 27.0383 11.4735 27.0955 11.5318 27.0955C11.59 27.0955 11.7182 27.0383 11.8173 26.964C11.9164 26.8954 12.9186 25.7864 14.0491 24.4945C15.1737 23.2027 16.1293 22.1166 16.1701 22.0765C16.2284 22.0137 16.7237 22.2252 18.9438 23.2655C20.4297 23.9629 21.7233 24.5346 21.8107 24.5346C21.9039 24.5403 22.0263 24.4888 22.0962 24.4202C22.1836 24.3402 23.3257 20.8361 25.9945 12.5074C28.0748 6.02515 29.7938 0.617525 29.8113 0.503199C29.8404 0.325993 29.8229 0.268829 29.7006 0.148787C29.6132 0.0687599 29.4908 0.000164032 29.415 0.000164032C29.3393 0.000164032 22.7372 2.98408 14.7425 6.63108Z" fill="#EC3B63"/>
</svg>
