<svg width="19" height="19" viewBox="0 0 19 19" fill="none" xmlns="http://www.w3.org/2000/svg">
<g clip-path="url(#clip0_791_33636)">
<path d="M13.1982 3.55145H11.8257C11.7329 4.35888 11.3741 5.10575 10.7918 5.68808L5.88084 10.5989L2.71313 7.43122C2.50616 8.03157 2.39844 8.66533 2.39844 9.30962C2.39844 12.4847 4.98157 15.0678 8.15667 15.0678H9.01722L12.7699 18.5604V15.0679H13.1982C16.3733 15.0679 18.9564 12.4848 18.9564 9.30969C18.9564 6.13462 16.3733 3.55145 13.1982 3.55145ZM9.12308 10.0469H8.00592V8.98981H9.12308V10.0469ZM11.4137 10.0469H10.2965V8.98981H11.4137V10.0469ZM13.7043 10.0469H12.5871V8.98981H13.7043V10.0469Z" fill="#0F5B92"/>
<path d="M10.07 4.96615C11.0822 3.95391 11.0822 2.30688 10.07 1.29463C9.05773 0.282413 7.41073 0.282413 6.39848 1.29463L5.88104 1.8121L5.36356 1.29463C4.35131 0.282342 2.70428 0.282377 1.69203 1.29466C1.2017 1.78496 0.931641 2.43692 0.931641 3.13039C0.931641 3.82386 1.20166 4.47578 1.69203 4.96615L5.88101 9.15512L10.07 4.96615Z" fill="#0F5B92"/>
</g>
<defs>
<clipPath id="clip0_791_33636">
<rect width="18.025" height="18.025" fill="white" transform="translate(0.930664 0.535431)"/>
</clipPath>
</defs>
</svg>
