<svg width="18" height="18" viewBox="0 0 18 18" fill="none" xmlns="http://www.w3.org/2000/svg">
<g clip-path="url(#clip0_791_33613)">
<path d="M8.99433 0.0375061C4.0953 0.0375061 0.123047 4.00976 0.123047 8.90879C0.123047 13.8078 4.0953 17.7808 8.99433 17.7808C13.8934 17.7808 17.8664 13.8078 17.8664 8.90879C17.8664 4.00976 13.8934 0.0375061 8.99433 0.0375061ZM10.8411 13.7868C10.3845 13.967 10.021 14.1037 9.74837 14.1984C9.47649 14.293 9.16031 14.3403 8.80056 14.3403C8.24779 14.3403 7.81745 14.2051 7.51102 13.9355C7.2046 13.6659 7.05214 13.3241 7.05214 12.9088C7.05214 12.7474 7.0634 12.5821 7.08594 12.4139C7.10922 12.2457 7.14602 12.0564 7.19634 11.8439L7.76788 9.82506C7.8182 9.63129 7.86176 9.44728 7.89631 9.27604C7.93086 9.10331 7.94738 8.94484 7.94738 8.80064C7.94738 8.54378 7.89405 8.36353 7.78816 8.26214C7.68076 8.16075 7.47873 8.11118 7.17756 8.11118C7.03036 8.11118 6.87865 8.13296 6.72318 8.17878C6.56922 8.22609 6.43554 8.2689 6.32588 8.31096L6.47684 7.6891C6.85086 7.53664 7.20911 7.40596 7.55083 7.29781C7.89255 7.18815 8.2155 7.13408 8.51967 7.13408C9.06868 7.13408 9.49227 7.26777 9.79043 7.53213C10.0871 7.79725 10.2365 8.14198 10.2365 8.56556C10.2365 8.65343 10.226 8.80815 10.2058 9.02895C10.1855 9.25051 10.1472 9.45254 10.0916 9.63805L9.52306 11.6508C9.47649 11.8123 9.43519 11.9971 9.39764 12.2036C9.36084 12.4101 9.34281 12.5679 9.34281 12.6737C9.34281 12.9411 9.40214 13.1236 9.52231 13.2205C9.64097 13.3174 9.84901 13.3662 10.1434 13.3662C10.2824 13.3662 10.4378 13.3414 10.6136 13.2934C10.7878 13.2453 10.914 13.2025 10.9936 13.1657L10.8411 13.7868ZM10.7405 5.61698C10.4754 5.86332 10.1562 5.98649 9.78292 5.98649C9.4104 5.98649 9.08896 5.86332 8.82159 5.61698C8.55572 5.37064 8.42128 5.07097 8.42128 4.72099C8.42128 4.37176 8.55647 4.07134 8.82159 3.82275C9.08896 3.5734 9.4104 3.44948 9.78292 3.44948C10.1562 3.44948 10.4761 3.5734 10.7405 3.82275C11.0056 4.07134 11.1385 4.37176 11.1385 4.72099C11.1385 5.07173 11.0056 5.37064 10.7405 5.61698Z" fill="#0F5B92"/>
</g>
<defs>
<clipPath id="clip0_791_33613">
<rect width="17.7433" height="17.7433" fill="white" transform="translate(0.125 0.0375061)"/>
</clipPath>
</defs>
</svg>
