<svg width="23" height="22" viewBox="0 0 23 22" fill="none" xmlns="http://www.w3.org/2000/svg">
<g clip-path="url(#clip0_791_33618)">
<path d="M4.63638 3.76492C4.21494 3.76492 3.87207 4.10779 3.87207 4.52928C3.87207 4.95071 4.21494 5.29359 4.63638 5.29359C5.05786 5.29359 5.40073 4.95071 5.40073 4.52928C5.40073 4.10779 5.05786 3.76492 4.63638 3.76492Z" fill="#0F5B92"/>
<path d="M16.3307 20.4037C16.6824 19.5551 16.2796 18.5821 15.4311 18.2304C14.5826 17.8787 13.6097 18.2815 13.2579 19.13C12.9062 19.9785 13.3089 20.9515 14.1575 21.3032C15.006 21.6549 15.9789 21.2522 16.3307 20.4037Z" fill="#0F5B92"/>
<path d="M11.8094 19.7623C11.8094 19.5909 11.8248 19.4231 11.8528 19.2595H3.23423C2.53416 19.2595 1.96459 18.6899 1.96459 17.9898C1.96459 17.2897 2.53416 16.7201 3.23423 16.7201H9.1756C10.5265 16.7201 11.6255 15.6211 11.6255 14.2702C11.6255 12.9193 10.5265 11.8203 9.1756 11.8203H6.55926L5.77378 13.1335H9.1756C9.8024 13.1335 10.3123 13.6434 10.3123 14.2702C10.3123 14.897 9.80236 15.4069 9.1756 15.4069H3.23423C1.81005 15.4069 0.651367 16.5656 0.651367 17.9898C0.651367 19.414 1.81005 20.5726 3.23423 20.5726H11.9225C11.8494 20.3148 11.8094 20.0432 11.8094 19.7623Z" fill="#0F5B92"/>
<path d="M22.4201 10.6735C22.4097 10.4148 22.2482 10.1864 22.0078 10.0902L15.0284 7.29841C14.8261 7.21754 14.5969 7.24219 14.4165 7.36435C14.236 7.48652 14.1279 7.69019 14.1279 7.90804V16.8602C14.3392 16.8124 14.5586 16.7864 14.7841 16.7864C15.0099 16.7864 15.2296 16.8125 15.4411 16.8603V14.5712L22.0559 11.2879C22.2878 11.1729 22.4304 10.9322 22.4201 10.6735Z" fill="#0F5B92"/>
<path d="M8.69522 4.4482C8.69522 2.22453 6.89257 0.421875 4.6689 0.421875C2.44523 0.421875 0.642578 2.22453 0.642578 4.4482V4.4649C0.642578 5.26864 0.857632 6.05773 1.26543 6.75035L4.32939 11.9541C4.46808 12.1896 4.80836 12.1908 4.94867 11.9562L8.05648 6.76034C8.47447 6.06155 8.69522 5.26248 8.69522 4.4482ZM4.63724 6.60677C3.49169 6.60677 2.55971 5.67479 2.55971 4.52923C2.55971 3.38368 3.49169 2.45169 4.63724 2.45169C5.78279 2.45169 6.71478 3.38368 6.71478 4.52923C6.71478 5.67483 5.78279 6.60677 4.63724 6.60677Z" fill="#0F5B92"/>
</g>
<defs>
<clipPath id="clip0_791_33618">
<rect width="21.7802" height="21.7802" fill="white" transform="translate(0.641602 0.0333557)"/>
</clipPath>
</defs>
</svg>
