<svg width="20" height="20" viewBox="0 0 20 20" fill="none" xmlns="http://www.w3.org/2000/svg">
<g clip-path="url(#clip0_791_33627)">
<path d="M5.05249 10.3905H4.17679C3.94706 10.3905 3.73968 10.5273 3.6488 10.738L1.22461 16.3826L6.98177 13.4422C6.29259 12.4886 5.61071 11.4368 5.05249 10.3905Z" fill="#0F5B92"/>
<path d="M16.1907 10.738C16.0999 10.5273 15.8924 10.3905 15.6628 10.3905H14.7871C13.7329 12.366 12.1971 14.4075 11.2201 15.5306C10.533 16.3187 9.30572 16.3178 8.61967 15.5306C8.5495 15.45 8.18316 15.0259 7.67856 14.3736L6.64062 14.904L10.5668 18.8226L18.0063 14.9658L16.1907 10.738Z" fill="#0F5B92"/>
<path d="M0.518284 18.0323L0.20513 18.7616C0.04304 19.1389 0.320738 19.5604 0.732964 19.5604H9.16356C9.2163 19.5212 9.2169 19.5236 9.49996 19.3769L5.56794 15.453L0.518284 18.0323Z" fill="#0F5B92"/>
<path d="M19.6375 18.7616L18.4612 16.0224L11.6367 19.5604H19.1097C19.521 19.5604 19.7999 19.1397 19.6375 18.7616Z" fill="#0F5B92"/>
<path d="M10.4953 5.19446C10.4953 4.87833 10.2376 4.62134 9.921 4.62134C9.60427 4.62134 9.34668 4.87833 9.34668 5.19446C9.34668 5.51045 9.60427 5.76759 9.921 5.76759C10.2376 5.76759 10.4953 5.51045 10.4953 5.19446Z" fill="#0F5B92"/>
<path d="M10.354 14.7403C10.5474 14.5183 15.0893 9.26443 15.0893 5.65287C15.0893 -1.79431 4.75195 -1.88519 4.75195 5.65287C4.75195 9.26443 9.29389 14.5183 9.48727 14.7403C9.71625 15.003 10.1255 15.0027 10.354 14.7403ZM8.1977 5.19446C8.1977 4.24636 8.9706 3.47509 9.92065 3.47509C10.8705 3.47509 11.6434 4.24636 11.6434 5.19446C11.6434 6.14242 10.8705 6.91369 9.92065 6.91369C8.9706 6.91369 8.1977 6.14242 8.1977 5.19446Z" fill="#0F5B92"/>
</g>
<defs>
<clipPath id="clip0_791_33627">
<rect width="19.527" height="19.527" fill="white" transform="translate(0.158203 0.0333557)"/>
</clipPath>
</defs>
</svg>
