<svg width="18" height="19" viewBox="0 0 18 19" fill="none" xmlns="http://www.w3.org/2000/svg">
<g clip-path="url(#clip0_791_33655)">
<path d="M13.1357 15.5741C12.4624 15.5741 11.9141 15.0047 11.9141 14.3056C11.9141 13.6065 12.4624 13.0371 13.1357 13.0371C13.809 13.0371 14.3574 13.6065 14.3574 14.3056C14.3574 15.0047 13.809 15.5741 13.1357 15.5741ZM13.1357 13.8828C12.9115 13.8828 12.7285 14.0728 12.7285 14.3056C12.7285 14.5385 12.9115 14.7285 13.1357 14.7285C13.3599 14.7285 13.5429 14.5385 13.5429 14.3056C13.5429 14.0728 13.3599 13.8828 13.1357 13.8828Z" fill="#0F5B92"/>
<path d="M17.2785 5.86854L16.4271 6.60598C16.3115 6.70633 16.1437 6.70633 16.0281 6.60598L15.1767 5.86854C15.0041 5.71914 14.9807 5.45247 15.1246 5.27318C15.2685 5.0939 15.5258 5.06966 15.6985 5.21962L16.2273 5.67798L16.7562 5.21962C16.9288 5.06966 17.1856 5.0939 17.3301 5.27318C17.474 5.45247 17.4512 5.71914 17.2785 5.86854Z" fill="#0F5B92"/>
<path d="M13.6494 7.94846C13.8743 7.94846 14.0566 7.75915 14.0566 7.52562C14.0566 7.2921 13.8743 7.10278 13.6494 7.10278C13.4245 7.10278 13.2422 7.2921 13.2422 7.52562C13.2422 7.75915 13.4245 7.94846 13.6494 7.94846Z" fill="#0F5B92"/>
<path d="M13.6494 9.56589C13.8743 9.56589 14.0566 9.37658 14.0566 9.14305C14.0566 8.90953 13.8743 8.72021 13.6494 8.72021C13.4245 8.72021 13.2422 8.90953 13.2422 9.14305C13.2422 9.37658 13.4245 9.56589 13.6494 9.56589Z" fill="#0F5B92"/>
<path d="M16.6356 5.99648H15.8212C15.8212 4.05367 14.2987 2.47282 12.4277 2.47282H11.749C11.5242 2.47282 11.3418 2.28338 11.3418 2.04998C11.3418 1.81657 11.5242 1.62714 11.749 1.62714H12.4277C14.7477 1.62714 16.6356 3.58742 16.6356 5.99648Z" fill="#0F5B92"/>
<path d="M6.84464 9.08718C5.12293 9.08718 3.72266 7.63318 3.72266 5.84541C3.72266 4.05764 5.12293 2.60364 6.84464 2.60364C8.56635 2.60364 9.96662 4.05764 9.96662 5.84541C9.96662 7.63318 8.56635 9.08718 6.84464 9.08718ZM6.84464 3.44932C5.57196 3.44932 4.53709 4.52389 4.53709 5.84541C4.53709 7.16692 5.57196 8.2415 6.84464 8.2415C8.11732 8.2415 9.15219 7.16692 9.15219 5.84541C9.15219 4.52389 8.11732 3.44932 6.84464 3.44932Z" fill="#0F5B92"/>
<path d="M10.5197 4.37225C9.93763 2.80887 8.46134 1.75797 6.84606 1.75797C5.24217 1.75797 3.81203 2.75362 3.20338 4.29445L2.44922 3.97309C3.18492 2.11372 4.91043 0.912292 6.8466 0.912292C8.79526 0.912292 10.5767 2.18025 11.2793 4.06724L10.5197 4.37225Z" fill="#0F5B92"/>
<path d="M10.6455 8.11029C9.82181 8.11029 9.15234 7.41515 9.15234 6.55988V5.43231C9.15234 4.57705 9.82181 3.8819 10.6455 3.8819C11.4691 3.8819 12.1386 4.57705 12.1386 5.43231V6.55988C12.1386 7.41515 11.4691 8.11029 10.6455 8.11029ZM10.6455 4.72758C10.2714 4.72758 9.96677 5.04386 9.96677 5.43231V6.55988C9.96677 6.94833 10.2714 7.26462 10.6455 7.26462C11.0196 7.26462 11.3242 6.94833 11.3242 6.55988V5.43231C11.3242 5.04386 11.0196 4.72758 10.6455 4.72758Z" fill="#0F5B92"/>
<path d="M3.04488 8.11029C2.22122 8.11029 1.55176 7.41515 1.55176 6.55988V5.43231C1.55176 4.57705 2.22122 3.8819 3.04488 3.8819C3.86854 3.8819 4.538 4.57705 4.538 5.43231V6.55988C4.538 7.41515 3.86854 8.11029 3.04488 8.11029ZM3.04488 4.72758C2.67079 4.72758 2.36619 5.04386 2.36619 5.43231V6.55988C2.36619 6.94833 2.67079 7.26462 3.04488 7.26462C3.41898 7.26462 3.72357 6.94833 3.72357 6.55988V5.43231C3.72357 5.04386 3.41898 4.72758 3.04488 4.72758Z" fill="#0F5B92"/>
<path d="M15.1657 17.5441H9.78064C9.33053 17.5441 8.9092 17.3366 8.62415 16.9747C8.3391 16.6127 8.22779 16.1425 8.31738 15.6847L8.96241 12.3945C9.10358 11.6756 9.71929 11.1536 10.4257 11.1536H15.8107C16.2608 11.1536 16.6821 11.361 16.9672 11.723C17.2522 12.0849 17.3635 12.5551 17.2739 13.0129L16.6289 16.3026C16.4877 17.022 15.872 17.5441 15.1657 17.5441ZM10.4257 11.9992C10.1042 11.9992 9.82462 12.2366 9.76055 12.563L9.11552 15.8533C9.0748 16.0613 9.12584 16.275 9.25506 16.4396C9.38428 16.6042 9.57595 16.6984 9.78064 16.6984H15.1657C15.4871 16.6984 15.7667 16.461 15.8308 16.1341L16.4758 12.8444C16.5165 12.6363 16.4655 12.4226 16.3363 12.258C16.207 12.0934 16.0154 11.9992 15.8107 11.9992H10.4257Z" fill="#0F5B92"/>
<path d="M9.78065 17.5441H6.46483C6.24005 17.5441 6.05762 17.3547 6.05762 17.1213C6.05762 16.8879 6.24005 16.6984 6.46483 16.6984H9.78065V17.5441Z" fill="#0F5B92"/>
<path d="M4.37784 17.5441H3.2637C2.68057 17.5441 2.12404 17.2836 1.73746 16.8286C1.35088 16.3742 1.17062 15.7687 1.24337 15.1677L1.49639 13.0687C1.55014 12.6217 1.7885 12.2214 2.14956 11.9716L4.70524 10.2025C6.00182 9.30491 7.69149 9.30491 8.98806 10.2025L9.1933 10.3445C9.38062 10.4742 9.43111 10.7364 9.30623 10.9309C9.18135 11.1254 8.92888 11.1778 8.74156 11.0481L8.53632 10.9061C7.51286 10.1979 6.17991 10.1974 5.15644 10.9061L2.60021 12.6752C2.43624 12.7885 2.32819 12.9701 2.30376 13.173L2.05074 15.272C2.00731 15.6328 2.11536 15.9959 2.3472 16.2694C2.57958 16.5417 2.91295 16.6984 3.26316 16.6984H4.3773C4.49946 16.6984 4.60806 16.6386 4.67592 16.5332C4.74379 16.4284 4.75628 16.3009 4.71067 16.1837L3.85932 14.0108C3.77462 13.7943 3.87452 13.548 4.08302 13.46C4.29097 13.3721 4.52878 13.4764 4.61294 13.6923L5.46429 15.8657C5.61198 16.2423 5.56963 16.6685 5.35082 17.0057C5.13255 17.3428 4.76823 17.5441 4.37676 17.5441H4.37784Z" fill="#0F5B92"/>
<path d="M6.84409 12.8117C6.2159 12.8117 5.65285 12.4757 5.33685 11.9119L4.57129 10.5458L5.2755 10.1207L6.04106 11.4868C6.20938 11.7867 6.50909 11.966 6.84409 11.966C7.1791 11.966 7.47881 11.7873 7.64712 11.4868L8.41214 10.1207L9.11635 10.5458L8.35133 11.9119C8.03533 12.4757 7.47175 12.8117 6.84409 12.8117Z" fill="#0F5B92"/>
</g>
<defs>
<clipPath id="clip0_791_33655">
<rect width="17.3745" height="18.0412" fill="white" transform="translate(0.547852 0.207581)"/>
</clipPath>
</defs>
</svg>
